<svg version="1.1" id="Layer_1" xmlns="http://www.w3.org/2000/svg" xmlns:xlink="http://www.w3.org/1999/xlink" x="0px" y="0px"
	 width="100%" viewBox="0 0 1536 1536" enable-background="new 0 0 1536 1536" xml:space="preserve">
<path fill="#000000" opacity="1.000000" stroke="none" 
	d="
M863.000000,1537.000000 
	C575.333374,1537.000000 288.166779,1537.000000 1.000116,1537.000000 
	C1.000077,1025.000122 1.000077,513.000305 1.000039,1.000322 
	C512.999756,1.000214 1024.999512,1.000214 1536.999512,1.000107 
	C1536.999634,512.999695 1536.999634,1024.999390 1536.999756,1536.999512 
	C1312.500000,1537.000000 1088.000000,1537.000000 863.000000,1537.000000 
M953.383057,1084.937622 
	C953.296143,1085.319092 953.209290,1085.700684 952.952820,1086.779907 
	C952.180359,1093.533081 952.633545,1093.982544 960.978333,1093.865845 
	C963.051514,1093.971558 965.124756,1094.077148 967.092834,1094.927856 
	C966.687134,1096.535522 966.395264,1098.182373 965.858154,1099.744751 
	C960.857422,1114.290405 964.067322,1111.461548 975.845032,1111.779175 
	C979.475037,1111.877197 980.604065,1109.927368 979.719849,1106.632935 
	C978.602661,1102.470337 977.387146,1098.334229 977.235657,1093.987793 
	C979.308899,1093.900757 981.382202,1093.813721 984.232971,1093.805054 
	C991.164185,1093.807983 991.693359,1093.124146 990.254456,1085.036499 
	C989.371094,1083.247437 988.487732,1081.458252 987.249634,1079.197998 
	C984.561646,1077.478271 981.873596,1075.758423 978.449768,1073.620605 
	C973.827759,1073.756470 969.205811,1073.892456 963.921021,1074.070190 
	C961.290222,1075.977661 958.659424,1077.885132 955.455566,1080.244751 
	C954.957153,1081.822266 954.458740,1083.399658 953.999451,1085.000854 
	C953.999451,1085.000854 953.992188,1084.955322 953.383057,1084.937622 
M588.696838,668.999023 
	C587.087341,668.999023 585.477844,668.999023 583.768433,668.999023 
	C583.768433,677.923401 583.768433,686.346924 583.768433,695.180542 
	C588.628784,695.180542 593.218384,695.180542 597.760498,695.180542 
	C597.760498,756.346863 597.760498,817.099182 597.760498,878.333252 
	C592.975159,878.333252 588.413696,878.333252 583.755981,878.333252 
	C583.755981,887.242554 583.755981,895.667419 583.755981,904.617065 
	C585.614868,904.617065 587.236328,904.617126 588.857727,904.617126 
	C684.839844,904.616943 780.822144,904.698669 876.803833,904.501160 
	C887.413940,904.479309 898.151672,903.628052 908.604675,901.841858 
	C940.808716,896.338806 968.908508,882.607422 991.407288,858.405334 
	C1032.996216,813.668213 1029.001343,746.726318 982.726746,706.833679 
	C952.567322,680.833679 917.369141,669.140503 878.098511,669.061890 
	C781.950134,668.869507 685.801086,668.999023 588.696838,668.999023 
M849.500000,658.000244 
	C869.644531,657.924377 889.831360,658.766296 909.796631,655.004028 
	C941.125366,649.100403 968.933655,636.454041 991.409241,613.179321 
	C1029.963135,573.254456 1029.740723,513.521240 990.652405,474.134979 
	C960.889709,444.145325 924.003540,430.471771 882.569092,430.203491 
	C784.586853,429.569061 686.597717,429.998718 588.611328,430.008667 
	C587.009338,430.008820 585.407410,430.142181 583.797241,430.213776 
	C583.797241,437.645813 583.797241,444.720001 583.797241,452.215637 
	C588.694214,452.215637 593.277893,452.215637 597.664307,452.215637 
	C597.664307,513.538391 597.664307,574.431091 597.664307,635.687256 
	C592.882751,635.687256 588.431702,635.687256 583.771667,635.687256 
	C583.771667,643.294556 583.771667,650.534851 583.771667,658.000244 
	C672.207825,658.000244 760.353943,658.000244 849.500000,658.000244 
M631.989746,992.503296 
	C631.989746,1007.574707 631.989746,1022.646118 631.989746,1037.850708 
	C633.118530,1037.925049 633.754761,1038.004150 634.390930,1038.003174 
	C642.371521,1037.990112 650.357910,1038.148926 658.331177,1037.895630 
	C667.420715,1037.606689 674.583679,1032.352295 676.517883,1025.021851 
	C678.713562,1016.700317 676.267578,1011.195251 667.861206,1005.538452 
	C674.440308,1001.127502 676.494080,996.462219 675.197937,989.123474 
	C673.965149,982.143494 669.099487,978.754700 662.776855,978.139954 
	C652.634216,977.153748 642.406433,977.044128 631.989746,976.553467 
	C631.989746,982.230225 631.989746,986.867432 631.989746,992.503296 
M771.220459,977.528748 
	C762.477844,980.528442 756.797241,986.593872 755.159485,995.569641 
	C754.044861,1001.678040 753.741638,1008.085266 754.145386,1014.289307 
	C755.043640,1028.093018 764.776184,1037.870483 777.794617,1038.916016 
	C795.741821,1040.357422 807.051575,1033.365967 810.469666,1018.334534 
	C811.416687,1014.169922 811.831970,1009.764526 811.695984,1005.494873 
	C811.178772,989.257629 803.833313,978.968445 790.229675,976.681091 
	C784.341980,975.691162 778.071655,976.976868 771.220459,977.528748 
M730.933655,979.441284 
	C709.738831,969.489746 689.929749,978.751526 686.442810,1000.335999 
	C685.969421,1003.266724 686.041626,1006.310852 686.097229,1009.297974 
	C686.598572,1036.221191 707.389099,1043.121338 726.956543,1037.188354 
	C734.056030,1035.035645 738.903137,1030.029541 741.448181,1023.099731 
	C745.054810,1013.279480 745.100708,1003.300964 741.979980,993.317993 
	C740.174561,987.542480 736.746216,983.009644 730.933655,979.441284 
M845.403748,992.881958 
	C842.840027,996.247864 840.276306,999.613708 836.907227,1004.036926 
	C836.907227,994.278381 836.907227,985.766907 836.907227,977.296692 
	C832.295166,977.296692 828.233887,977.296692 824.277100,977.296692 
	C824.277100,997.667664 824.277100,1017.730530 824.277100,1037.666626 
	C828.633667,1037.666626 832.691589,1037.666626 836.924622,1037.666626 
	C836.924622,1031.844604 837.236633,1026.341553 836.827026,1020.892578 
	C836.492188,1016.437134 838.415527,1014.221985 842.400757,1012.887573 
	C847.005554,1020.379028 851.446899,1027.782837 856.117920,1035.038818 
	C856.956787,1036.341919 858.673523,1037.732666 860.105530,1037.875732 
	C864.007385,1038.265869 867.973755,1038.009888 872.558777,1038.009888 
	C871.641357,1036.338379 871.087036,1035.205688 870.424133,1034.140259 
	C864.896484,1025.256348 859.472717,1016.303467 853.732605,1007.558472 
	C851.987976,1004.900513 851.970032,1003.202454 854.016418,1000.714111 
	C860.203125,993.191467 866.096863,985.427979 872.338867,977.459473 
	C863.680847,976.099731 856.155579,975.914001 851.689819,984.877441 
	C850.311584,987.643799 847.835999,989.863403 845.403748,992.881958 
M943.454529,1031.626709 
	C943.373779,1030.175659 943.293091,1028.724487 943.189087,1026.855225 
	C935.759033,1026.855225 928.679016,1026.855225 921.743835,1026.855225 
	C921.743835,1021.657349 921.743835,1016.904114 921.743835,1011.626709 
	C928.583801,1011.626709 935.151367,1011.626709 941.665039,1011.626709 
	C941.665039,1007.825256 941.665039,1004.570801 941.665039,1000.917419 
	C934.819275,1000.917419 928.221863,1000.917419 921.706177,1000.917419 
	C921.706177,996.406311 921.706177,992.307861 921.706177,987.681274 
	C928.989502,987.681274 936.039734,987.681274 943.228455,987.681274 
	C943.228455,983.875854 943.228455,980.610291 943.228455,977.358398 
	C931.473938,977.358398 919.949402,977.358398 908.570801,977.358398 
	C908.570801,997.763184 908.570801,1017.797668 908.570801,1037.726074 
	C920.328552,1037.726074 931.731812,1037.726074 943.454407,1037.726074 
	C943.454407,1035.804321 943.454407,1034.163208 943.454529,1031.626709 
M891.126648,977.000183 
	C887.523804,977.000183 883.920959,977.000183 880.398804,977.000183 
	C880.398804,997.668030 880.398804,1017.729126 880.398804,1037.798096 
	C884.822449,1037.798096 888.931702,1037.798096 893.064087,1037.798096 
	C893.210632,1037.133423 893.407043,1036.656860 893.407593,1036.180054 
	C893.428345,1017.520020 893.453979,998.859863 893.376831,980.200195 
	C893.372437,979.136963 892.506897,978.077271 891.126648,977.000183 
M583.493469,1077.927246 
	C581.741760,1077.927246 579.990051,1077.927246 578.253967,1077.927246 
	C578.253967,1087.618652 578.253967,1096.661987 578.253967,1106.072632 
	C581.115479,1106.072632 583.737732,1106.021729 586.357178,1106.084229 
	C590.572388,1106.184692 594.289551,1105.461426 596.168762,1101.010620 
	C598.028442,1096.606445 596.103149,1093.430908 594.079285,1091.802979 
	C594.713684,1087.945312 596.026062,1084.916138 595.446716,1082.307007 
	C594.613831,1078.555176 590.900269,1077.967041 587.416016,1077.934570 
	C586.420898,1077.925171 585.425720,1077.929321 583.493469,1077.927246 
M781.820190,1080.614136 
	C777.135193,1076.325317 771.643433,1078.373047 766.887329,1078.042725 
	C766.887329,1087.784912 766.887329,1096.907837 766.887329,1106.030762 
	C767.418640,1106.055176 767.950012,1106.079468 768.481323,1106.103882 
	C768.481323,1102.170898 768.481323,1098.237915 768.481323,1094.637207 
	C773.525940,1092.872070 776.140869,1094.575562 777.913452,1098.423096 
	C778.947327,1100.667114 780.238037,1102.823730 781.670593,1104.836548 
	C782.162476,1105.527710 783.435303,1105.662964 785.351440,1106.477173 
	C782.408630,1101.417358 780.163391,1097.556885 777.925598,1093.709351 
	C783.783752,1089.533203 784.449280,1087.579834 781.820190,1080.614136 
M739.414001,1095.509277 
	C739.415771,1104.529541 739.415771,1104.529541 741.342651,1105.798462 
	C741.342651,1096.554443 741.342651,1087.258301 741.342651,1077.962158 
	C740.823730,1077.940918 740.304871,1077.919800 739.785950,1077.898560 
	C739.579346,1081.799072 739.372803,1085.699585 739.161499,1089.688965 
	C734.016296,1089.688965 729.105896,1089.688965 723.310669,1089.688965 
	C723.310669,1085.603516 723.310669,1081.756348 723.310669,1077.909058 
	C722.798767,1077.935425 722.286804,1077.961792 721.774902,1077.988159 
	C721.774902,1087.319336 721.774902,1096.650635 721.774902,1105.981934 
	C722.319275,1106.028809 722.863708,1106.075684 723.408081,1106.122437 
	C723.408081,1101.490112 723.408081,1096.857788 723.408081,1092.001099 
	C728.604065,1092.001099 732.742004,1091.854126 736.853821,1092.115845 
	C737.753601,1092.173096 738.560730,1093.686646 739.414001,1095.509277 
M811.597656,1106.072754 
	C815.021545,1106.072754 818.445435,1106.072754 821.869324,1106.072754 
	C821.868591,1105.432739 821.867920,1104.792847 821.867188,1104.152832 
	C817.585510,1104.152832 813.303833,1104.152832 809.217773,1104.152832 
	C809.217773,1099.624023 809.217773,1095.899658 809.217773,1091.340698 
	C813.398926,1091.340698 817.235840,1091.340698 821.072754,1091.340698 
	C821.040527,1090.894165 821.008301,1090.447754 820.976074,1090.001221 
	C817.067993,1090.001221 813.159851,1090.001221 809.119995,1090.001221 
	C809.119995,1086.457153 809.119995,1083.406738 809.119995,1079.494141 
	C813.547974,1079.494141 817.742432,1079.494141 821.936829,1079.494141 
	C821.903748,1079.088623 821.870605,1078.683105 821.837524,1078.277588 
	C816.698181,1078.277588 811.558899,1078.277588 806.425537,1078.277588 
	C806.425537,1087.652466 806.425537,1096.703369 806.425537,1106.072754 
	C808.027954,1106.072754 809.332642,1106.072754 811.597656,1106.072754 
M883.126465,1085.580322 
	C883.126465,1092.328857 883.126465,1099.077393 883.126465,1105.453857 
	C888.819458,1105.453857 893.847900,1105.453857 898.876282,1105.453857 
	C898.872192,1104.987793 898.868103,1104.521729 898.864014,1104.055664 
	C894.560730,1104.055664 890.257385,1104.055664 886.072021,1104.055664 
	C886.072021,1099.662964 886.072021,1096.050537 886.072021,1091.664551 
	C890.169189,1091.664551 894.078308,1091.664551 897.987427,1091.664551 
	C897.987061,1091.164185 897.986633,1090.663940 897.986267,1090.163574 
	C894.045044,1090.163574 890.103821,1090.163574 886.160095,1090.163574 
	C886.160095,1086.385742 886.160095,1083.332642 886.160095,1079.408691 
	C890.610291,1079.408691 894.773926,1079.408691 898.937561,1079.408691 
	C898.903870,1079.039551 898.870117,1078.670410 898.836426,1078.301270 
	C893.673523,1078.301270 888.510620,1078.301270 883.126526,1078.301270 
	C883.126526,1080.650391 883.126526,1082.626831 883.126465,1085.580322 
M624.414612,1099.536987 
	C625.080200,1101.655151 622.911499,1104.694458 627.690613,1106.731934 
	C624.032837,1094.869263 632.378906,1087.365601 635.916016,1078.302124 
	C635.411316,1078.014404 634.906616,1077.726807 634.401917,1077.439087 
	C631.555359,1082.345337 628.708801,1087.251587 625.817139,1092.235474 
	C622.205444,1087.261230 620.975403,1081.393066 616.177124,1078.082764 
	C617.006226,1081.286987 618.639160,1083.976685 619.876709,1086.837402 
	C621.548523,1090.702271 622.916382,1094.698608 624.414612,1099.536987 
M858.791382,1091.822632 
	C858.534607,1091.215942 858.294922,1090.090332 858.018494,1090.081299 
	C854.420410,1089.962769 850.817078,1090.002686 847.269836,1090.002686 
	C847.269836,1086.346680 847.269836,1083.267212 847.269836,1079.498901 
	C851.786011,1079.498901 856.043945,1079.498901 860.301941,1079.498901 
	C860.290344,1079.130737 860.278809,1078.762695 860.267273,1078.394531 
	C855.312073,1078.394531 850.356812,1078.394531 845.350891,1078.394531 
	C845.350891,1087.576782 845.350891,1096.760498 845.350891,1105.378418 
	C850.580322,1105.378418 855.439575,1105.378418 860.298889,1105.378418 
	C860.276978,1104.954224 860.255066,1104.529907 860.233215,1104.105713 
	C855.886780,1104.105713 851.540405,1104.105713 847.261108,1104.105713 
	C847.261108,1099.705933 847.261108,1095.951904 847.261108,1091.916138 
	C850.971008,1091.916138 854.436829,1091.916138 858.791382,1091.822632 
M699.899963,1078.027954 
	C693.359802,1078.027954 686.819641,1078.027954 680.279480,1078.027954 
	C680.289856,1078.602783 680.300232,1079.177490 680.310669,1079.752319 
	C683.165039,1079.900635 686.019409,1080.048950 689.740601,1080.242432 
	C689.740601,1089.061768 689.740601,1097.571411 689.740601,1106.081055 
	C690.325256,1106.077881 690.909912,1106.074585 691.494568,1106.071289 
	C691.494568,1097.490723 691.494568,1088.910156 691.494568,1081.056885 
	C695.210144,1080.002441 697.950684,1079.224731 699.899963,1078.027954 
z"/>
<path fill="#F7F7F7" opacity="1.000000" stroke="none" 
	d="
M589.174561,668.999023 
	C685.801086,668.999023 781.950134,668.869507 878.098511,669.061890 
	C917.369141,669.140503 952.567322,680.833679 982.726746,706.833679 
	C1029.001343,746.726318 1032.996216,813.668213 991.407288,858.405334 
	C968.908508,882.607422 940.808716,896.338806 908.604675,901.841858 
	C898.151672,903.628052 887.413940,904.479309 876.803833,904.501160 
	C780.822144,904.698669 684.839844,904.616943 588.857727,904.617126 
	C587.236328,904.617126 585.614868,904.617065 583.755981,904.617065 
	C583.755981,895.667419 583.755981,887.242554 583.755981,878.333252 
	C588.413696,878.333252 592.975159,878.333252 597.760498,878.333252 
	C597.760498,817.099182 597.760498,756.346863 597.760498,695.180542 
	C593.218384,695.180542 588.628784,695.180542 583.768433,695.180542 
	C583.768433,686.346924 583.768433,677.923401 583.768433,668.999023 
	C585.477844,668.999023 587.087341,668.999023 589.174561,668.999023 
z"/>
<path fill="#F8F8F8" opacity="1.000000" stroke="none" 
	d="
M849.000000,658.000244 
	C760.353943,658.000244 672.207825,658.000244 583.771667,658.000244 
	C583.771667,650.534851 583.771667,643.294556 583.771667,635.687256 
	C588.431702,635.687256 592.882751,635.687256 597.664307,635.687256 
	C597.664307,574.431091 597.664307,513.538391 597.664307,452.215637 
	C593.277893,452.215637 588.694214,452.215637 583.797241,452.215637 
	C583.797241,444.720001 583.797241,437.645813 583.797241,430.213776 
	C585.407410,430.142181 587.009338,430.008820 588.611328,430.008667 
	C686.597717,429.998718 784.586853,429.569061 882.569092,430.203491 
	C924.003540,430.471771 960.889709,444.145325 990.652405,474.134979 
	C1029.740723,513.521240 1029.963135,573.254456 991.409241,613.179321 
	C968.933655,636.454041 941.125366,649.100403 909.796631,655.004028 
	C889.831360,658.766296 869.644531,657.924377 849.000000,658.000244 
z"/>
<path fill="#F3F3F3" opacity="1.000000" stroke="none" 
	d="
M631.989746,992.003967 
	C631.989746,986.867432 631.989746,982.230225 631.989746,976.553467 
	C642.406433,977.044128 652.634216,977.153748 662.776855,978.139954 
	C669.099487,978.754700 673.965149,982.143494 675.197937,989.123474 
	C676.494080,996.462219 674.440308,1001.127502 667.861206,1005.538452 
	C676.267578,1011.195251 678.713562,1016.700317 676.517883,1025.021851 
	C674.583679,1032.352295 667.420715,1037.606689 658.331177,1037.895630 
	C650.357910,1038.148926 642.371521,1037.990112 634.390930,1038.003174 
	C633.754761,1038.004150 633.118530,1037.925049 631.989746,1037.850708 
	C631.989746,1022.646118 631.989746,1007.574707 631.989746,992.003967 
M644.926147,1013.856506 
	C644.926147,1018.140442 644.926147,1022.424377 644.926147,1027.021484 
	C648.979248,1027.021484 652.622925,1027.264038 656.220764,1026.961548 
	C660.976135,1026.561523 663.609375,1023.662415 663.067200,1018.967651 
	C662.820068,1016.827881 661.198792,1013.310974 659.818237,1013.115112 
	C654.949707,1012.424316 649.915527,1012.900879 644.926147,1013.856506 
M662.065613,994.446594 
	C660.820923,988.061890 655.816101,986.271362 645.158813,988.406921 
	C645.158813,992.491638 645.158813,996.575623 645.158813,1000.982544 
	C648.182312,1000.982544 651.007874,1001.245422 653.763062,1000.917480 
	C657.385010,1000.486328 661.213745,999.966248 662.065613,994.446594 
z"/>
<path fill="#F3F3F3" opacity="1.000000" stroke="none" 
	d="
M771.597778,977.378845 
	C778.071655,976.976868 784.341980,975.691162 790.229675,976.681091 
	C803.833313,978.968445 811.178772,989.257629 811.695984,1005.494873 
	C811.831970,1009.764526 811.416687,1014.169922 810.469666,1018.334534 
	C807.051575,1033.365967 795.741821,1040.357422 777.794617,1038.916016 
	C764.776184,1037.870483 755.043640,1028.093018 754.145386,1014.289307 
	C753.741638,1008.085266 754.044861,1001.678040 755.159485,995.569641 
	C756.797241,986.593872 762.477844,980.528442 771.597778,977.378845 
M797.477844,1002.229187 
	C797.339294,1001.241699 797.248962,1000.244629 797.054565,999.268250 
	C795.517578,991.548950 790.772583,987.182068 783.674011,986.926025 
	C775.569702,986.633728 769.830994,990.259033 768.564209,998.251953 
	C767.575317,1004.491760 767.698547,1011.190247 768.831177,1017.411133 
	C770.186890,1024.857666 775.524231,1028.182129 782.916992,1028.073486 
	C789.967773,1027.969971 794.978271,1024.455933 796.548340,1017.351501 
	C797.565125,1012.750732 797.278564,1007.861938 797.477844,1002.229187 
z"/>
<path fill="#F3F3F3" opacity="1.000000" stroke="none" 
	d="
M731.238403,979.651367 
	C736.746216,983.009644 740.174561,987.542480 741.979980,993.317993 
	C745.100708,1003.300964 745.054810,1013.279480 741.448181,1023.099731 
	C738.903137,1030.029541 734.056030,1035.035645 726.956543,1037.188354 
	C707.389099,1043.121338 686.598572,1036.221191 686.097229,1009.297974 
	C686.041626,1006.310852 685.969421,1003.266724 686.442810,1000.335999 
	C689.929749,978.751526 709.738831,969.489746 731.238403,979.651367 
M728.084717,1020.238770 
	C728.703125,1013.695740 730.220337,1007.083252 729.721130,1000.626648 
	C729.038208,991.794739 723.596497,987.135193 716.039856,986.925659 
	C707.349487,986.684692 702.487549,990.478455 700.736328,999.846008 
	C699.895447,1004.344116 699.663818,1009.151733 700.247620,1013.678467 
	C701.348206,1022.212708 705.399231,1026.598877 712.046265,1027.890259 
	C718.351318,1029.115234 723.960571,1026.647339 728.084717,1020.238770 
z"/>
<path fill="#F3F3F3" opacity="1.000000" stroke="none" 
	d="
M845.633301,992.607666 
	C847.835999,989.863403 850.311584,987.643799 851.689819,984.877441 
	C856.155579,975.914001 863.680847,976.099731 872.338867,977.459473 
	C866.096863,985.427979 860.203125,993.191467 854.016418,1000.714111 
	C851.970032,1003.202454 851.987976,1004.900513 853.732605,1007.558472 
	C859.472717,1016.303467 864.896484,1025.256348 870.424133,1034.140259 
	C871.087036,1035.205688 871.641357,1036.338379 872.558777,1038.009888 
	C867.973755,1038.009888 864.007385,1038.265869 860.105530,1037.875732 
	C858.673523,1037.732666 856.956787,1036.341919 856.117920,1035.038818 
	C851.446899,1027.782837 847.005554,1020.379028 842.400757,1012.887573 
	C838.415527,1014.221985 836.492188,1016.437134 836.827026,1020.892578 
	C837.236633,1026.341553 836.924622,1031.844604 836.924622,1037.666626 
	C832.691589,1037.666626 828.633667,1037.666626 824.277100,1037.666626 
	C824.277100,1017.730530 824.277100,997.667664 824.277100,977.296692 
	C828.233887,977.296692 832.295166,977.296692 836.907227,977.296692 
	C836.907227,985.766907 836.907227,994.278381 836.907227,1004.036926 
	C840.276306,999.613708 842.840027,996.247864 845.633301,992.607666 
z"/>
<path fill="#F3F3F3" opacity="1.000000" stroke="none" 
	d="
M943.454468,1032.074463 
	C943.454407,1034.163208 943.454407,1035.804321 943.454407,1037.726074 
	C931.731812,1037.726074 920.328552,1037.726074 908.570801,1037.726074 
	C908.570801,1017.797668 908.570801,997.763184 908.570801,977.358398 
	C919.949402,977.358398 931.473938,977.358398 943.228455,977.358398 
	C943.228455,980.610291 943.228455,983.875854 943.228455,987.681274 
	C936.039734,987.681274 928.989502,987.681274 921.706177,987.681274 
	C921.706177,992.307861 921.706177,996.406311 921.706177,1000.917419 
	C928.221863,1000.917419 934.819275,1000.917419 941.665039,1000.917419 
	C941.665039,1004.570801 941.665039,1007.825256 941.665039,1011.626709 
	C935.151367,1011.626709 928.583801,1011.626709 921.743835,1011.626709 
	C921.743835,1016.904114 921.743835,1021.657349 921.743835,1026.855225 
	C928.679016,1026.855225 935.759033,1026.855225 943.189087,1026.855225 
	C943.293091,1028.724487 943.373779,1030.175659 943.454468,1032.074463 
z"/>
<path fill="#F7F7F7" opacity="1.000000" stroke="none" 
	d="
M891.584351,977.008057 
	C892.506897,978.077271 893.372437,979.136963 893.376831,980.200195 
	C893.453979,998.859863 893.428345,1017.520020 893.407593,1036.180054 
	C893.407043,1036.656860 893.210632,1037.133423 893.064087,1037.798096 
	C888.931702,1037.798096 884.822449,1037.798096 880.398804,1037.798096 
	C880.398804,1017.729126 880.398804,997.668030 880.398804,977.000183 
	C883.920959,977.000183 887.523804,977.000183 891.584351,977.008057 
z"/>
<path fill="#EB3C1D" opacity="1.000000" stroke="none" 
	d="
M967.197937,1094.182861 
	C965.124756,1094.077148 963.051514,1093.971558 960.619141,1093.423828 
	C961.896423,1087.373169 958.010864,1086.110229 953.960327,1084.977173 
	C954.458740,1083.399658 954.957153,1081.822266 956.021301,1080.286621 
	C962.814392,1081.692261 964.704224,1080.203369 964.583801,1074.028320 
	C969.205811,1073.892456 973.827759,1073.756470 978.742126,1074.227539 
	C979.505066,1080.853760 982.149048,1082.345337 987.604370,1079.669189 
	C988.487732,1081.458252 989.371094,1083.247437 989.900635,1085.369873 
	C983.571350,1086.233398 982.631592,1087.471313 983.455444,1093.726685 
	C981.382202,1093.813721 979.308899,1093.900757 976.336304,1093.997559 
	C972.690674,1094.065796 969.944275,1094.124268 967.197937,1094.182861 
M970.804382,1078.995483 
	C967.422791,1079.917236 965.380798,1082.196533 966.856689,1085.466064 
	C967.656128,1087.237183 970.504639,1089.273926 972.223083,1089.104370 
	C973.933777,1088.935547 976.322144,1086.367432 976.750305,1084.475098 
	C977.540466,1080.983032 975.156189,1079.087524 970.804382,1078.995483 
z"/>
<path fill="#D4D4D4" opacity="1.000000" stroke="none" 
	d="
M967.145386,1094.555420 
	C969.944275,1094.124268 972.690674,1094.065796 975.825562,1094.096924 
	C977.387146,1098.334229 978.602661,1102.470337 979.719849,1106.632935 
	C980.604065,1109.927368 979.475037,1111.877197 975.845032,1111.779175 
	C964.067322,1111.461548 960.857422,1114.290405 965.858154,1099.744751 
	C966.395264,1098.182373 966.687134,1096.535522 967.145386,1094.555420 
z"/>
<path fill="#D4D4D4" opacity="1.000000" stroke="none" 
	d="
M583.962036,1077.927246 
	C585.425720,1077.929321 586.420898,1077.925171 587.416016,1077.934570 
	C590.900269,1077.967041 594.613831,1078.555176 595.446716,1082.307007 
	C596.026062,1084.916138 594.713684,1087.945312 594.079285,1091.802979 
	C596.103149,1093.430908 598.028442,1096.606445 596.168762,1101.010620 
	C594.289551,1105.461426 590.572388,1106.184692 586.357178,1106.084229 
	C583.737732,1106.021729 581.115479,1106.072632 578.253967,1106.072632 
	C578.253967,1096.661987 578.253967,1087.618652 578.253967,1077.927246 
	C579.990051,1077.927246 581.741760,1077.927246 583.962036,1077.927246 
M583.669067,1104.001709 
	C584.988770,1104.000977 586.312866,1104.069336 587.627441,1103.986450 
	C591.335754,1103.752686 593.936218,1102.276855 594.083191,1098.090210 
	C594.234680,1093.774902 591.499756,1092.362915 587.879456,1092.047119 
	C585.607300,1091.848755 583.303650,1092.010132 580.587097,1092.010132 
	C580.587097,1095.586060 580.466431,1098.867188 580.686768,1102.125122 
	C580.731995,1102.794189 582.052612,1103.376831 583.669067,1104.001709 
M581.914917,1080.023315 
	C581.302795,1083.185425 580.690735,1086.347534 579.933289,1090.260620 
	C584.033447,1089.851562 587.108704,1089.972656 589.866638,1089.095825 
	C591.327209,1088.631470 593.259094,1086.335938 593.137207,1085.040161 
	C592.981934,1083.390259 591.260071,1081.214722 589.672729,1080.541992 
	C587.663025,1079.690308 585.109314,1080.122314 581.914917,1080.023315 
z"/>
<path fill="#D4D4D4" opacity="1.000000" stroke="none" 
	d="
M782.043823,1080.926392 
	C784.449280,1087.579834 783.783752,1089.533203 777.925598,1093.709351 
	C780.163391,1097.556885 782.408630,1101.417358 785.351440,1106.477173 
	C783.435303,1105.662964 782.162476,1105.527710 781.670593,1104.836548 
	C780.238037,1102.823730 778.947327,1100.667114 777.913452,1098.423096 
	C776.140869,1094.575562 773.525940,1092.872070 768.481323,1094.637207 
	C768.481323,1098.237915 768.481323,1102.170898 768.481323,1106.103882 
	C767.950012,1106.079468 767.418640,1106.055176 766.887329,1106.030762 
	C766.887329,1096.907837 766.887329,1087.784912 766.887329,1078.042725 
	C771.643433,1078.373047 777.135193,1076.325317 782.043823,1080.926392 
M771.420044,1079.999023 
	C770.573608,1080.660767 769.055908,1081.267212 768.996155,1081.993652 
	C768.730042,1085.231689 768.880676,1088.503906 768.880676,1091.830444 
	C771.256836,1091.830444 773.067627,1091.903320 774.867859,1091.797363 
	C775.671143,1091.750000 776.778809,1091.590088 777.185547,1091.054321 
	C778.566040,1089.235474 780.626526,1087.229736 780.634155,1085.288330 
	C780.640625,1083.653687 778.371033,1081.700439 776.680603,1080.483398 
	C775.648315,1079.740112 773.805969,1080.121948 771.420044,1079.999023 
z"/>
<path fill="#D4D4D4" opacity="1.000000" stroke="none" 
	d="
M739.412231,1095.019287 
	C738.560730,1093.686646 737.753601,1092.173096 736.853821,1092.115845 
	C732.742004,1091.854126 728.604065,1092.001099 723.408081,1092.001099 
	C723.408081,1096.857788 723.408081,1101.490112 723.408081,1106.122437 
	C722.863708,1106.075684 722.319275,1106.028809 721.774902,1105.981934 
	C721.774902,1096.650635 721.774902,1087.319336 721.774902,1077.988159 
	C722.286804,1077.961792 722.798767,1077.935425 723.310669,1077.909058 
	C723.310669,1081.756348 723.310669,1085.603516 723.310669,1089.688965 
	C729.105896,1089.688965 734.016296,1089.688965 739.161499,1089.688965 
	C739.372803,1085.699585 739.579346,1081.799072 739.785950,1077.898560 
	C740.304871,1077.919800 740.823730,1077.940918 741.342651,1077.962158 
	C741.342651,1087.258301 741.342651,1096.554443 741.342651,1105.798462 
	C739.415771,1104.529541 739.415771,1104.529541 739.412231,1095.019287 
z"/>
<path fill="#D4D4D4" opacity="1.000000" stroke="none" 
	d="
M811.117493,1106.072754 
	C809.332642,1106.072754 808.027954,1106.072754 806.425537,1106.072754 
	C806.425537,1096.703369 806.425537,1087.652466 806.425537,1078.277588 
	C811.558899,1078.277588 816.698181,1078.277588 821.837524,1078.277588 
	C821.870605,1078.683105 821.903748,1079.088623 821.936829,1079.494141 
	C817.742432,1079.494141 813.547974,1079.494141 809.119995,1079.494141 
	C809.119995,1083.406738 809.119995,1086.457153 809.119995,1090.001221 
	C813.159851,1090.001221 817.067993,1090.001221 820.976074,1090.001221 
	C821.008301,1090.447754 821.040527,1090.894165 821.072754,1091.340698 
	C817.235840,1091.340698 813.398926,1091.340698 809.217773,1091.340698 
	C809.217773,1095.899658 809.217773,1099.624023 809.217773,1104.152832 
	C813.303833,1104.152832 817.585510,1104.152832 821.867188,1104.152832 
	C821.867920,1104.792847 821.868591,1105.432739 821.869324,1106.072754 
	C818.445435,1106.072754 815.021545,1106.072754 811.117493,1106.072754 
z"/>
<path fill="#D4D4D4" opacity="1.000000" stroke="none" 
	d="
M883.126465,1085.091797 
	C883.126526,1082.626831 883.126526,1080.650391 883.126526,1078.301270 
	C888.510620,1078.301270 893.673523,1078.301270 898.836426,1078.301270 
	C898.870117,1078.670410 898.903870,1079.039551 898.937561,1079.408691 
	C894.773926,1079.408691 890.610291,1079.408691 886.160095,1079.408691 
	C886.160095,1083.332642 886.160095,1086.385742 886.160095,1090.163574 
	C890.103821,1090.163574 894.045044,1090.163574 897.986267,1090.163574 
	C897.986633,1090.663940 897.987061,1091.164185 897.987427,1091.664551 
	C894.078308,1091.664551 890.169189,1091.664551 886.072021,1091.664551 
	C886.072021,1096.050537 886.072021,1099.662964 886.072021,1104.055664 
	C890.257385,1104.055664 894.560730,1104.055664 898.864014,1104.055664 
	C898.868103,1104.521729 898.872192,1104.987793 898.876282,1105.453857 
	C893.847900,1105.453857 888.819458,1105.453857 883.126465,1105.453857 
	C883.126465,1099.077393 883.126465,1092.328857 883.126465,1085.091797 
z"/>
<path fill="#D4D4D4" opacity="1.000000" stroke="none" 
	d="
M624.414612,1099.087769 
	C622.916382,1094.698608 621.548523,1090.702271 619.876709,1086.837402 
	C618.639160,1083.976685 617.006226,1081.286987 616.177124,1078.082764 
	C620.975403,1081.393066 622.205444,1087.261230 625.817139,1092.235474 
	C628.708801,1087.251587 631.555359,1082.345337 634.401917,1077.439087 
	C634.906616,1077.726807 635.411316,1078.014404 635.916016,1078.302124 
	C632.378906,1087.365601 624.032837,1094.869263 627.690613,1106.731934 
	C622.911499,1104.694458 625.080200,1101.655151 624.414612,1099.087769 
z"/>
<path fill="#F3F3F3" opacity="1.000000" stroke="none" 
	d="
M858.347046,1091.869385 
	C854.436829,1091.916138 850.971008,1091.916138 847.261108,1091.916138 
	C847.261108,1095.951904 847.261108,1099.705933 847.261108,1104.105713 
	C851.540405,1104.105713 855.886780,1104.105713 860.233215,1104.105713 
	C860.255066,1104.529907 860.276978,1104.954224 860.298889,1105.378418 
	C855.439575,1105.378418 850.580322,1105.378418 845.350891,1105.378418 
	C845.350891,1096.760498 845.350891,1087.576782 845.350891,1078.394531 
	C850.356812,1078.394531 855.312073,1078.394531 860.267273,1078.394531 
	C860.278809,1078.762695 860.290344,1079.130737 860.301941,1079.498901 
	C856.043945,1079.498901 851.786011,1079.498901 847.269836,1079.498901 
	C847.269836,1083.267212 847.269836,1086.346680 847.269836,1090.002686 
	C850.817078,1090.002686 854.420410,1089.962769 858.018494,1090.081299 
	C858.294922,1090.090332 858.534607,1091.215942 858.347046,1091.869385 
z"/>
<path fill="#D4D4D4" opacity="1.000000" stroke="none" 
	d="
M700.295593,1078.237549 
	C697.950684,1079.224731 695.210144,1080.002441 691.494568,1081.056885 
	C691.494568,1088.910156 691.494568,1097.490723 691.494568,1106.071289 
	C690.909912,1106.074585 690.325256,1106.077881 689.740601,1106.081055 
	C689.740601,1097.571411 689.740601,1089.061768 689.740601,1080.242432 
	C686.019409,1080.048950 683.165039,1079.900635 680.310669,1079.752319 
	C680.300232,1079.177490 680.289856,1078.602783 680.279480,1078.027954 
	C686.819641,1078.027954 693.359802,1078.027954 700.295593,1078.237549 
z"/>
<path fill="#D4D4D4" opacity="1.000000" stroke="none" 
	d="
M953.979858,1084.989014 
	C958.010864,1086.110229 961.896423,1087.373169 960.102173,1093.347290 
	C952.633545,1093.982544 952.180359,1093.533081 953.303101,1086.338745 
	C953.766296,1085.583496 953.879211,1085.269409 953.992188,1084.955322 
	C953.992188,1084.955322 953.999451,1085.000854 953.979858,1084.989014 
z"/>
<path fill="#D4D4D4" opacity="1.000000" stroke="none" 
	d="
M983.844238,1093.765869 
	C982.631592,1087.471313 983.571350,1086.233398 989.946777,1085.804199 
	C991.693359,1093.124146 991.164185,1093.807983 983.844238,1093.765869 
z"/>
<path fill="#D4D4D4" opacity="1.000000" stroke="none" 
	d="
M964.252441,1074.049316 
	C964.704224,1080.203369 962.814392,1081.692261 956.307861,1080.060547 
	C958.659424,1077.885132 961.290222,1075.977661 964.252441,1074.049316 
z"/>
<path fill="#D4D4D4" opacity="1.000000" stroke="none" 
	d="
M987.427002,1079.433594 
	C982.149048,1082.345337 979.505066,1080.853760 979.110046,1074.436523 
	C981.873596,1075.758423 984.561646,1077.478271 987.427002,1079.433594 
z"/>
<path fill="#EB3C1D" opacity="1.000000" stroke="none" 
	d="
M953.687622,1084.946533 
	C953.879211,1085.269409 953.766296,1085.583496 953.387878,1085.989868 
	C953.209290,1085.700684 953.296143,1085.319092 953.687622,1084.946533 
z"/>
<path fill="#000000" opacity="1.000000" stroke="none" 
	d="
M644.935181,1013.395630 
	C649.915527,1012.900879 654.949707,1012.424316 659.818237,1013.115112 
	C661.198792,1013.310974 662.820068,1016.827881 663.067200,1018.967651 
	C663.609375,1023.662415 660.976135,1026.561523 656.220764,1026.961548 
	C652.622925,1027.264038 648.979248,1027.021484 644.926147,1027.021484 
	C644.926147,1022.424377 644.926147,1018.140442 644.935181,1013.395630 
z"/>
<path fill="#000000" opacity="1.000000" stroke="none" 
	d="
M662.032593,994.846619 
	C661.213745,999.966248 657.385010,1000.486328 653.763062,1000.917480 
	C651.007874,1001.245422 648.182312,1000.982544 645.158813,1000.982544 
	C645.158813,996.575623 645.158813,992.491638 645.158813,988.406921 
	C655.816101,986.271362 660.820923,988.061890 662.032593,994.846619 
z"/>
<path fill="#000000" opacity="1.000000" stroke="none" 
	d="
M797.526978,1002.665649 
	C797.278564,1007.861938 797.565125,1012.750732 796.548340,1017.351501 
	C794.978271,1024.455933 789.967773,1027.969971 782.916992,1028.073486 
	C775.524231,1028.182129 770.186890,1024.857666 768.831177,1017.411133 
	C767.698547,1011.190247 767.575317,1004.491760 768.564209,998.251953 
	C769.830994,990.259033 775.569702,986.633728 783.674011,986.926025 
	C790.772583,987.182068 795.517578,991.548950 797.054565,999.268250 
	C797.248962,1000.244629 797.339294,1001.241699 797.526978,1002.665649 
z"/>
<path fill="#000000" opacity="1.000000" stroke="none" 
	d="
M727.937988,1020.600952 
	C723.960571,1026.647339 718.351318,1029.115234 712.046265,1027.890259 
	C705.399231,1026.598877 701.348206,1022.212708 700.247620,1013.678467 
	C699.663818,1009.151733 699.895447,1004.344116 700.736328,999.846008 
	C702.487549,990.478455 707.349487,986.684692 716.039856,986.925659 
	C723.596497,987.135193 729.038208,991.794739 729.721130,1000.626648 
	C730.220337,1007.083252 728.703125,1013.695740 727.937988,1020.600952 
z"/>
<path fill="#D4D4D4" opacity="1.000000" stroke="none" 
	d="
M971.199829,1078.955566 
	C975.156189,1079.087524 977.540466,1080.983032 976.750305,1084.475098 
	C976.322144,1086.367432 973.933777,1088.935547 972.223083,1089.104370 
	C970.504639,1089.273926 967.656128,1087.237183 966.856689,1085.466064 
	C965.380798,1082.196533 967.422791,1079.917236 971.199829,1078.955566 
z"/>
<path fill="#000000" opacity="1.000000" stroke="none" 
	d="
M583.227173,1104.000488 
	C582.052612,1103.376831 580.731995,1102.794189 580.686768,1102.125122 
	C580.466431,1098.867188 580.587097,1095.586060 580.587097,1092.010132 
	C583.303650,1092.010132 585.607300,1091.848755 587.879456,1092.047119 
	C591.499756,1092.362915 594.234680,1093.774902 594.083191,1098.090210 
	C593.936218,1102.276855 591.335754,1103.752686 587.627441,1103.986450 
	C586.312866,1104.069336 584.988770,1104.000977 583.227173,1104.000488 
z"/>
<path fill="#000000" opacity="1.000000" stroke="none" 
	d="
M582.352539,1080.011963 
	C585.109314,1080.122314 587.663025,1079.690308 589.672729,1080.541992 
	C591.260071,1081.214722 592.981934,1083.390259 593.137207,1085.040161 
	C593.259094,1086.335938 591.327209,1088.631470 589.866638,1089.095825 
	C587.108704,1089.972656 584.033447,1089.851562 579.933289,1090.260620 
	C580.690735,1086.347534 581.302795,1083.185425 582.352539,1080.011963 
z"/>
<path fill="#000000" opacity="1.000000" stroke="none" 
	d="
M771.873779,1079.998779 
	C773.805969,1080.121948 775.648315,1079.740112 776.680603,1080.483398 
	C778.371033,1081.700439 780.640625,1083.653687 780.634155,1085.288330 
	C780.626526,1087.229736 778.566040,1089.235474 777.185547,1091.054321 
	C776.778809,1091.590088 775.671143,1091.750000 774.867859,1091.797363 
	C773.067627,1091.903320 771.256836,1091.830444 768.880676,1091.830444 
	C768.880676,1088.503906 768.730042,1085.231689 768.996155,1081.993652 
	C769.055908,1081.267212 770.573608,1080.660767 771.873779,1079.998779 
z"/>
</svg>